<mxfile host="app.diagrams.net" modified="2024-07-07T18:36:37.266Z" agent="Mozilla/5.0 (Windows NT 10.0; Win64; x64) AppleWebKit/537.36 (KHTML, like Gecko) Chrome/126.0.0.0 Safari/537.36" etag="PJM7xpIjZYzy3zwWwgIP" version="24.6.4" type="device">
  <diagram name="Page-1" id="-Wftpi4_jTx8Fu8Yzf0L">
    <mxGraphModel dx="913" dy="454" grid="1" gridSize="10" guides="1" tooltips="1" connect="1" arrows="1" fold="1" page="1" pageScale="1" pageWidth="850" pageHeight="1100" math="0" shadow="0">
      <root>
        <mxCell id="0" />
        <mxCell id="1" parent="0" />
        <mxCell id="wKvLeG6X7i7lk3OunroV-11" style="edgeStyle=orthogonalEdgeStyle;rounded=0;orthogonalLoop=1;jettySize=auto;html=1;" edge="1" parent="1" source="wKvLeG6X7i7lk3OunroV-1" target="wKvLeG6X7i7lk3OunroV-10">
          <mxGeometry relative="1" as="geometry" />
        </mxCell>
        <mxCell id="wKvLeG6X7i7lk3OunroV-12" style="edgeStyle=orthogonalEdgeStyle;rounded=0;orthogonalLoop=1;jettySize=auto;html=1;exitX=0;exitY=1;exitDx=0;exitDy=0;" edge="1" parent="1" source="wKvLeG6X7i7lk3OunroV-1" target="wKvLeG6X7i7lk3OunroV-8">
          <mxGeometry relative="1" as="geometry" />
        </mxCell>
        <mxCell id="wKvLeG6X7i7lk3OunroV-13" style="edgeStyle=orthogonalEdgeStyle;rounded=0;orthogonalLoop=1;jettySize=auto;html=1;exitX=0.5;exitY=1;exitDx=0;exitDy=0;entryX=0.5;entryY=0;entryDx=0;entryDy=0;" edge="1" parent="1" source="wKvLeG6X7i7lk3OunroV-1" target="wKvLeG6X7i7lk3OunroV-9">
          <mxGeometry relative="1" as="geometry" />
        </mxCell>
        <mxCell id="wKvLeG6X7i7lk3OunroV-1" value="Authentication" style="rounded=1;whiteSpace=wrap;html=1;arcSize=16;" vertex="1" parent="1">
          <mxGeometry x="365" y="130" width="120" height="60" as="geometry" />
        </mxCell>
        <mxCell id="wKvLeG6X7i7lk3OunroV-3" style="edgeStyle=orthogonalEdgeStyle;rounded=0;orthogonalLoop=1;jettySize=auto;html=1;" edge="1" parent="1" source="wKvLeG6X7i7lk3OunroV-2" target="wKvLeG6X7i7lk3OunroV-1">
          <mxGeometry relative="1" as="geometry" />
        </mxCell>
        <mxCell id="wKvLeG6X7i7lk3OunroV-6" value="Yes" style="edgeLabel;html=1;align=center;verticalAlign=middle;resizable=0;points=[];" vertex="1" connectable="0" parent="wKvLeG6X7i7lk3OunroV-3">
          <mxGeometry x="0.1137" y="-1" relative="1" as="geometry">
            <mxPoint as="offset" />
          </mxGeometry>
        </mxCell>
        <mxCell id="wKvLeG6X7i7lk3OunroV-5" style="edgeStyle=orthogonalEdgeStyle;rounded=0;orthogonalLoop=1;jettySize=auto;html=1;" edge="1" parent="1" source="wKvLeG6X7i7lk3OunroV-2" target="wKvLeG6X7i7lk3OunroV-4">
          <mxGeometry relative="1" as="geometry" />
        </mxCell>
        <mxCell id="wKvLeG6X7i7lk3OunroV-7" value="No" style="edgeLabel;html=1;align=center;verticalAlign=middle;resizable=0;points=[];" vertex="1" connectable="0" parent="wKvLeG6X7i7lk3OunroV-5">
          <mxGeometry x="0.5585" y="1" relative="1" as="geometry">
            <mxPoint as="offset" />
          </mxGeometry>
        </mxCell>
        <mxCell id="wKvLeG6X7i7lk3OunroV-2" value="Welcome! Already a member?" style="rounded=1;whiteSpace=wrap;html=1;arcSize=16;" vertex="1" parent="1">
          <mxGeometry x="365" y="30" width="120" height="40" as="geometry" />
        </mxCell>
        <mxCell id="wKvLeG6X7i7lk3OunroV-4" value="Register" style="rounded=1;whiteSpace=wrap;html=1;arcSize=16;" vertex="1" parent="1">
          <mxGeometry x="540" y="130" width="120" height="60" as="geometry" />
        </mxCell>
        <mxCell id="wKvLeG6X7i7lk3OunroV-8" value="Admin" style="rounded=1;whiteSpace=wrap;html=1;arcSize=16;" vertex="1" parent="1">
          <mxGeometry x="200" y="230" width="120" height="60" as="geometry" />
        </mxCell>
        <mxCell id="wKvLeG6X7i7lk3OunroV-9" value="Seller" style="rounded=1;whiteSpace=wrap;html=1;arcSize=16;" vertex="1" parent="1">
          <mxGeometry x="365" y="230" width="120" height="60" as="geometry" />
        </mxCell>
        <mxCell id="wKvLeG6X7i7lk3OunroV-10" value="Customer" style="rounded=1;whiteSpace=wrap;html=1;arcSize=16;" vertex="1" parent="1">
          <mxGeometry x="30" y="230" width="120" height="60" as="geometry" />
        </mxCell>
      </root>
    </mxGraphModel>
  </diagram>
</mxfile>
